<svg xmlns="http://www.w3.org/2000/svg" viewBox="0 0 228 205" fill="none">
  <!-- White background -->
  <rect x="0" y="0" width="228" height="205" rx="20" ry="20" fill="white"/>

  <path fill-rule="evenodd" fill="black" d="M37.16 199c-16.13 0-29.16-13.34-29.16-29.84 0-16.5 13.03-29.84 29.16-29.84 16.13 0 29.16 13.34 29.16 29.84 0 16.5-13.03 29.84-29.16 29.84z"/>
  <path fill-rule="evenodd" fill="black" d="M108.12 60.99l7.69-.12.85 53.62-7.7.12z"/>
  <path fill-rule="evenodd" fill="black" d="M52.26 162.84l-4-6.62 56.63-35.77 4 6.62z"/>
  <path fill-rule="evenodd" fill="black" d="M117.48 127.01l4.18-6.51 53.25 35.77-4.18 6.51z"/>
  <path fill-rule="evenodd" fill="black" d="M191.84 199c-16.13 0-29.16-13.34-29.16-29.84 0-16.5 13.03-29.84 29.16-29.84 16.13 0 29.16 13.34 29.16 29.84 0 16.5-13.03 29.84-29.16 29.84z"/>
  <path fill-rule="evenodd" fill="black" d="M113.23 139.32c-9.11 0-16.48-7.53-16.48-16.86 0-9.33 7.37-16.87 16.48-16.87 9.12 0 16.48 7.54 16.48 16.87 0 9.33-7.36 16.86-16.48 16.86z"/>
  <path fill-rule="evenodd" fill="black" d="M113.23 66.68c-16.12 0-29.16-13.34-29.16-29.84 0-16.5 13.04-29.84 29.16-29.84 16.13 0 29.16 13.34 29.16 29.84 0 16.5-13.03 29.84-29.16 29.84z"/>
</svg>
